<svg xmlns="http://www.w3.org/2000/svg" width="1140" height="520"><path d="M1109.5 251c5.8 0 10.5 4.7 10.5 10.5s-4.7 10.5-10.5 10.5H30.5c-5.8 0-10.5-4.7-10.5-10.5S24.7 251 30.5 251z" stroke="#333" fill="#333"/><path d="M390 160c5.52 0 10 4.48 10 10v181c0 5.52-4.48 10-10 10s-10-4.48-10-10V170c0-5.52 4.48-10 10-10z" stroke="#333" stroke-opacity=".2" fill="#333" fill-opacity=".6"/><path d="M829 100c5.52 0 10 4.48 10 10v300c0 5.52-4.48 10-10 10s-10-4.48-10-10V110c0-5.52 4.48-10 10-10zM746.67 139.67c5.52 0 10 4.47 10 10v218c0 5.52-4.48 10-10 10-5.53 0-10-4.48-10-10v-218c0-5.53 4.47-10 10-10z" stroke="#652d7e" stroke-opacity=".6" fill="#652d7e"/><path d="M790.88 180c5.52 0 10 4.48 10 10v141c0 5.52-4.48 10-10 10-5.53 0-10-4.48-10-10V190c0-5.52 4.47-10 10-10z" stroke="#333" stroke-opacity=".2" fill="#333" fill-opacity=".6"/><path d="M509 60c5.52 0 10 4.48 10 10v376.55c0 5.52-4.48 10-10 10s-10-4.48-10-10V70c0-5.52 4.48-10 10-10z" stroke="#652d7e" stroke-opacity=".6" fill="#652d7e"/><path d="M630.18 20c5.52 0 10 4.48 10 10v460c0 5.52-4.48 10-10 10-5.53 0-10-4.48-10-10V30c0-5.52 4.47-10 10-10z" stroke="#333" stroke-opacity=".2" fill="#333" fill-opacity=".6"/><path d="M591.18 122c5.62 0 10.17 4.56 10.17 10.18v257.14c0 5.62-4.55 10.18-10.17 10.18S581 394.94 581 389.32V132.18c0-5.62 4.56-10.18 10.18-10.18z" stroke="#652d7e" stroke-opacity=".6" fill="#652d7e"/><path d="M70 220c5.52 0 10 4.48 10 10v60c0 5.52-4.48 10-10 10s-10-4.48-10-10v-60c0-5.52 4.48-10 10-10z" stroke="#333" stroke-opacity=".2" fill="#333" fill-opacity=".6"/><path d="M110 180c5.52 0 10 4.48 10 10v140c0 5.52-4.48 10-10 10s-10-4.48-10-10V190c0-5.52 4.48-10 10-10z" stroke="#652d7e" fill="#652d7e"/><path d="M150 140c5.52 0 10 4.48 10 10v220c0 5.52-4.48 10-10 10s-10-4.48-10-10V150c0-5.52 4.48-10 10-10z" stroke="#333" stroke-opacity=".2" fill="#333" fill-opacity=".6"/><path d="M190 180c5.52 0 10 4.48 10 10v140c0 5.52-4.48 10-10 10s-10-4.48-10-10V190c0-5.52 4.48-10 10-10z" stroke="#652d7e" fill="#652d7e"/><path d="M230 100c5.52 0 10 4.48 10 10v300c0 5.52-4.48 10-10 10s-10-4.48-10-10V110c0-5.52 4.48-10 10-10z" stroke="#333" stroke-opacity=".2" fill="#333" fill-opacity=".6"/><path d="M270.32 160c5.7 0 10.32 4.62 10.32 10.32v180.02c0 5.7-4.62 10.33-10.32 10.33S260 356.05 260 350.34V170.32c0-5.7 4.62-10.32 10.32-10.32zM350 139.67c5.52 0 10 4.47 10 10V369c0 5.52-4.48 10-10 10s-10-4.48-10-10V149.67c0-5.53 4.48-10 10-10zM429.82 122c5.62 0 10.18 4.56 10.18 10.18v257.14c0 5.62-4.56 10.18-10.18 10.18s-10.17-4.56-10.17-10.18V132.18c0-5.62 4.55-10.18 10.17-10.18z" stroke="#652d7e" fill="#652d7e"/><path d="M549.3 100c5.54 0 10 4.48 10 10v300c0 5.52-4.46 10-10 10-5.5 0-10-4.48-10-10V110c0-5.52 4.5-10 10-10z" stroke="#333" stroke-opacity=".2" fill="#333" fill-opacity=".6"/><path d="M668.98 139.67c5.6 0 10.16 4.55 10.16 10.16V367.5c0 5.62-4.55 10.17-10.16 10.17-5.6 0-10.16-4.55-10.16-10.16V149.84c0-5.6 4.55-10.16 10.16-10.16z" stroke="#652d7e" stroke-opacity=".6" fill="#652d7e"/><path d="M711 198.67c5.52 0 10 4.47 10 10V331c0 5.52-4.48 10-10 10s-10-4.48-10-10V208.67c0-5.53 4.48-10 10-10zM949 138c5.52 0 10 4.48 10 10v220c0 5.52-4.48 10-10 10s-10-4.48-10-10V148c0-5.52 4.48-10 10-10z" stroke="#333" stroke-opacity=".2" fill="#333" fill-opacity=".6"/><path d="M989 222c5.52 0 10 4.48 10 10v60c0 5.52-4.48 10-10 10s-10-4.48-10-10v-60c0-5.52 4.48-10 10-10z" stroke="#652d7e" fill="#652d7e"/><path d="M1029.5 180c5.52 0 10 4.48 10 10v140c0 5.52-4.48 10-10 10s-10-4.48-10-10V190c0-5.52 4.48-10 10-10zM310 160c5.52 0 10 4.48 10 10v181.1c0 5.54-4.48 10-10 10s-10-4.46-10-10V170c0-5.52 4.48-10 10-10zM469.2 160.5c5.5 0 10 4.48 10 10v181c0 5.52-4.5 10-10 10-5.54 0-10-4.48-10-10v-181c0-5.52 4.46-10 10-10zM869 62.72c5.52 0 10 4.48 10 10v376.56c0 5.52-4.48 10-10 10s-10-4.48-10-10V72.72c0-5.52 4.48-10 10-10z" stroke="#333" stroke-opacity=".2" fill="#333" fill-opacity=".6"/><path d="M909 102c5.52 0 10 4.48 10 10v300c0 5.52-4.48 10-10 10s-10-4.48-10-10V112c0-5.52 4.48-10 10-10zM1070 220c5.52 0 10 4.48 10 10v60c0 5.52-4.48 10-10 10s-10-4.48-10-10v-60c0-5.52 4.48-10 10-10z" stroke="#652d7e" fill="#652d7e"/><path d="M121.9 205.2c8 0 14.5 6.48 14.5 14.48v175.2c0 8-6.5 14.48-14.5 14.48s-14.47-6.48-14.47-14.48v-175.2c0-8 6.48-14.48 14.48-14.48zM166.94 321.04V292.9c15.62 0 28.28-12.62 28.28-28.17h28.28c0 31.1-25.32 56.3-56.56 56.3z" stroke="#fff" stroke-width="3" fill="#fff"/><path d="M110.38 264.73h28.28c0 15.55 12.66 28.16 28.28 28.16v28.14c-31.24 0-56.56-25.2-56.56-56.3zM238.1 90.1c8 0 14.5 6.47 14.5 14.47V308c0 8-6.5 14.5-14.5 14.5s-14.47-6.5-14.47-14.5V104.58c0-8 6.48-14.48 14.48-14.48zM339.46 263.84H310.4c0-16.04-13-29.05-29.04-29.05v-29.06c32.1 0 58.1 26.02 58.1 58.1z" stroke="#fff" stroke-width="3" fill="#fff"/><path d="M281.36 205.74v29.05c-16.04 0-29.05 13-29.05 29.04h-29.04c0-32.08 26.02-58.1 58.1-58.1zM324.98 249.36c8 0 14.48 6.5 14.48 14.48v44.9c0 8-6.48 14.47-14.48 14.47s-14.48-6.47-14.48-14.47v-44.9c0-7.98 6.5-14.47 14.48-14.47zM468.33 205.5c8 0 14.48 6.47 14.48 14.47v88.76c0 8-6.47 14.48-14.47 14.48s-14.48-6.47-14.48-14.47v-88.76c0-8 6.5-14.48 14.48-14.48zM569.7 264.57h-29.06c0-16.05-13-29.05-29.05-29.05v-29.05c32.08 0 58.1 26 58.1 58.1z" stroke="#fff" stroke-width="3" fill="#fff"/><path d="M511.6 206.47v29.05c-16.05 0-29.06 13-29.06 29.05H453.5c0-32.1 26-58.1 58.1-58.1zM555.2 250.1c8 0 14.5 6.47 14.5 14.47v44.88c0 8-6.5 14.48-14.5 14.48s-14.47-6.48-14.47-14.48v-44.88c0-8 6.48-14.48 14.48-14.48zM670.5 250.8c8 0 14.48 6.5 14.48 14.5s-6.48 14.47-14.48 14.47h-86.15c-8 0-14.48-6.48-14.48-14.48s6.48-14.5 14.48-14.5zM685.16 261.67h29.05c0 16.05 13.02 29.05 29.06 29.05v29.05c-32.08 0-58.1-26-58.1-58.1z" stroke="#fff" stroke-width="3" fill="#fff"/><path d="M743.26 319.77v-29.05c16.05 0 29.05-13 29.05-29.05h29.06c0 32.1-26 58.1-58.1 58.1zM699.64 89.36c8 0 14.48 6.5 14.48 14.48v156.38c0 8-6.48 14.48-14.48 14.48s-14.48-6.48-14.48-14.48V103.84c0-8 6.5-14.48 14.48-14.48z" stroke="#fff" stroke-width="3" fill="#fff"/><path d="M786.52 245.74c8 0 14.48 6.5 14.48 14.48 0 8-6.48 14.48-14.48 14.48s-14.48-6.48-14.48-14.48 6.5-14.48 14.48-14.48zM786.52 144.4c8 0 14.48 6.47 14.48 14.47s-6.48 14.48-14.48 14.48h-86.88c-8 0-14.48-6.5-14.48-14.48 0-8 6.5-14.48 14.48-14.48z" stroke="#fff" stroke-width="3" fill="#fff"/><path d="M801 261.67h29.05c0 16.05 13 29.05 29.05 29.05v29.05c-32.1 0-58.1-26-58.1-58.1zM859.1 319.77v-29.05c16.05 0 29.05-13 29.05-29.05h29.05c0 32.1-26 58.1-58.1 58.1z" stroke="#fff" stroke-width="3" fill="#fff"/><path d="M815.48 89.36c8 0 14.48 6.5 14.48 14.48v156.38c0 8-6.48 14.48-14.48 14.48S801 268.22 801 260.22V103.84c0-8 6.48-14.48 14.48-14.48zM902.36 245.74c8 0 14.48 6.5 14.48 14.48 0 8-6.48 14.48-14.48 14.48s-14.48-6.48-14.48-14.48 6.48-14.48 14.48-14.48z" stroke="#fff" stroke-width="3" fill="#fff"/><path d="M902.36 144.4c8 0 14.48 6.47 14.48 14.47s-6.48 14.48-14.48 14.48H786.52c-8 0-14.48-6.5-14.48-14.48 0-8 6.5-14.48 14.48-14.48zM1018.56 206.65c8 0 14.48 6.48 14.48 14.48v88.32c0 8-6.48 14.48-14.48 14.48s-14.48-6.48-14.48-14.48v-88.32c0-8 6.48-14.48 14.48-14.48z" stroke="#fff" stroke-width="3" fill="#fff"/><path d="M974.94 323.93v-29.05c16.04 0 29.05-13 29.05-29.05h29.04c0 32.1-26 58.1-58.1 58.1zM916.84 265.83h29.05c0 16.05 13 29.05 29.04 29.05v29.05c-32.1 0-58.1-26-58.1-58.1zM397.1 321.04V292.9c15.63 0 28.3-12.62 28.3-28.17h28.27c0 31.1-25.32 56.3-56.56 56.3z" stroke="#fff" stroke-width="3" fill="#fff"/><path d="M340.55 264.73h28.28c0 15.55 12.66 28.16 28.28 28.16v28.14c-31.23 0-56.55-25.2-56.55-56.3zM223.5 264.97h-28.28c0-15.55-12.66-28.16-28.28-28.16v-28.14c31.24 0 56.56 25.2 56.56 56.3zM166.94 208.66v28.15c-15.62 0-28.28 12.62-28.28 28.17h-28.28c0-31.1 25.32-56.3 56.56-56.3zM453.67 265.7H425.4c0-15.54-12.67-28.14-28.3-28.14V209.4c31.25 0 56.57 25.2 56.57 56.3z" stroke="#fff" stroke-width="3" fill="#fff"/><path d="M397.1 209.4v28.16c-15.6 0-28.27 12.6-28.27 28.15h-28.28c0-31.1 25.32-56.3 56.56-56.3zM1033.04 267.25H1004c0-16.05-13.02-29.05-29.06-29.05v-29.05c32.1 0 58.1 26 58.1 58.1z" stroke="#fff" stroke-width="3" fill="#fff"/><path d="M974.97 209.6v29.04c-16.05 0-29.05 13-29.05 29.05h-29.05c0-32.1 26-58.1 58.1-58.1zM569.33 265.83h29.05c0 16.05 13 29.05 29.05 29.05v29.05c-32.1 0-58.1-26-58.1-58.1zM685.53 264.75h-29.05c0-16.04-13-29.05-29.05-29.05v-29.05c32.08 0 58.1 26 58.1 58.1zM627.43 206.65v29.05c-16.05 0-29.05 13-29.05 29.05h-29.05c0-32.1 26-58.1 58.1-58.1z" stroke="#fff" stroke-width="3" fill="#fff"/><path d="M627.37 294.85h14.43c8.02 0 14.53 6.5 14.53 14.53s-6.5 14.54-14.53 14.54h-14.43z" stroke="#fff" stroke-width="3" fill="#fff"/></svg>