<svg xmlns="http://www.w3.org/2000/svg" width="1140" height="520"><path d="M1109.5 251c5.8 0 10.5 4.7 10.5 10.5s-4.7 10.5-10.5 10.5H30.5c-5.8 0-10.5-4.7-10.5-10.5S24.7 251 30.5 251z" stroke="#333" fill="#333"/><path d="M390 160c5.52 0 10 4.48 10 10v181c0 5.52-4.48 10-10 10s-10-4.48-10-10V170c0-5.52 4.48-10 10-10z" stroke="#333" stroke-opacity=".2" fill="#333" fill-opacity=".6"/><path d="M829 100c5.52 0 10 4.48 10 10v300c0 5.52-4.48 10-10 10s-10-4.48-10-10V110c0-5.52 4.48-10 10-10zM746.67 139.67c5.52 0 10 4.47 10 10v218c0 5.52-4.48 10-10 10-5.53 0-10-4.48-10-10v-218c0-5.53 4.47-10 10-10z" stroke="#652d7e" stroke-opacity=".6" fill="#652d7e"/><path d="M790.88 180c5.52 0 10 4.48 10 10v141c0 5.52-4.48 10-10 10-5.53 0-10-4.48-10-10V190c0-5.52 4.47-10 10-10z" stroke="#333" stroke-opacity=".2" fill="#333" fill-opacity=".6"/><path d="M509 60c5.52 0 10 4.48 10 10v376.55c0 5.52-4.48 10-10 10s-10-4.48-10-10V70c0-5.52 4.48-10 10-10z" stroke="#652d7e" stroke-opacity=".6" fill="#652d7e"/><path d="M630.18 20c5.52 0 10 4.48 10 10v460c0 5.52-4.48 10-10 10-5.53 0-10-4.48-10-10V30c0-5.52 4.47-10 10-10z" stroke="#333" stroke-opacity=".2" fill="#333" fill-opacity=".6"/><path d="M591.18 122c5.62 0 10.17 4.56 10.17 10.18v257.14c0 5.62-4.55 10.18-10.17 10.18S581 394.94 581 389.32V132.18c0-5.62 4.56-10.18 10.18-10.18z" stroke="#652d7e" stroke-opacity=".6" fill="#652d7e"/><path d="M70 220c5.52 0 10 4.48 10 10v60c0 5.52-4.48 10-10 10s-10-4.48-10-10v-60c0-5.52 4.48-10 10-10z" stroke="#333" stroke-opacity=".2" fill="#333" fill-opacity=".6"/><path d="M110 180c5.52 0 10 4.48 10 10v140c0 5.52-4.48 10-10 10s-10-4.48-10-10V190c0-5.52 4.48-10 10-10z" stroke="#652d7e" fill="#652d7e"/><path d="M150 140c5.52 0 10 4.48 10 10v220c0 5.52-4.48 10-10 10s-10-4.48-10-10V150c0-5.52 4.48-10 10-10z" stroke="#333" stroke-opacity=".2" fill="#333" fill-opacity=".6"/><path d="M190 180c5.52 0 10 4.48 10 10v140c0 5.52-4.48 10-10 10s-10-4.48-10-10V190c0-5.52 4.48-10 10-10z" stroke="#652d7e" fill="#652d7e"/><path d="M230 100c5.52 0 10 4.48 10 10v300c0 5.52-4.48 10-10 10s-10-4.48-10-10V110c0-5.52 4.48-10 10-10z" stroke="#333" stroke-opacity=".2" fill="#333" fill-opacity=".6"/><path d="M270.32 160c5.7 0 10.32 4.62 10.32 10.32v180.02c0 5.7-4.62 10.33-10.32 10.33S260 356.05 260 350.34V170.32c0-5.7 4.62-10.32 10.32-10.32zM350 139.67c5.52 0 10 4.47 10 10V369c0 5.52-4.48 10-10 10s-10-4.48-10-10V149.67c0-5.53 4.48-10 10-10zM429.82 122c5.62 0 10.18 4.56 10.18 10.18v257.14c0 5.62-4.56 10.18-10.18 10.18s-10.17-4.56-10.17-10.18V132.18c0-5.62 4.55-10.18 10.17-10.18z" stroke="#652d7e" fill="#652d7e"/><path d="M549.3 100c5.54 0 10 4.48 10 10v300c0 5.52-4.46 10-10 10-5.5 0-10-4.48-10-10V110c0-5.52 4.5-10 10-10z" stroke="#333" stroke-opacity=".2" fill="#333" fill-opacity=".6"/><path d="M668.98 139.67c5.6 0 10.16 4.55 10.16 10.16V367.5c0 5.62-4.55 10.17-10.16 10.17-5.6 0-10.16-4.55-10.16-10.16V149.84c0-5.6 4.55-10.16 10.16-10.16z" stroke="#652d7e" stroke-opacity=".6" fill="#652d7e"/><path d="M711 198.67c5.52 0 10 4.47 10 10V331c0 5.52-4.48 10-10 10s-10-4.48-10-10V208.67c0-5.53 4.48-10 10-10zM949 138c5.52 0 10 4.48 10 10v220c0 5.52-4.48 10-10 10s-10-4.48-10-10V148c0-5.52 4.48-10 10-10z" stroke="#333" stroke-opacity=".2" fill="#333" fill-opacity=".6"/><path d="M989 222c5.52 0 10 4.48 10 10v60c0 5.52-4.48 10-10 10s-10-4.48-10-10v-60c0-5.52 4.48-10 10-10z" stroke="#652d7e" fill="#652d7e"/><path d="M1029.5 180c5.52 0 10 4.48 10 10v140c0 5.52-4.48 10-10 10s-10-4.48-10-10V190c0-5.52 4.48-10 10-10zM310 160c5.52 0 10 4.48 10 10v181.1c0 5.54-4.48 10-10 10s-10-4.46-10-10V170c0-5.52 4.48-10 10-10zM469.2 160.5c5.5 0 10 4.48 10 10v181c0 5.52-4.5 10-10 10-5.54 0-10-4.48-10-10v-181c0-5.52 4.46-10 10-10zM869 62.72c5.52 0 10 4.48 10 10v376.56c0 5.52-4.48 10-10 10s-10-4.48-10-10V72.72c0-5.52 4.48-10 10-10z" stroke="#333" stroke-opacity=".2" fill="#333" fill-opacity=".6"/><path d="M909 102c5.52 0 10 4.48 10 10v300c0 5.52-4.48 10-10 10s-10-4.48-10-10V112c0-5.52 4.48-10 10-10zM1070 220c5.52 0 10 4.48 10 10v60c0 5.52-4.48 10-10 10s-10-4.48-10-10v-60c0-5.52 4.48-10 10-10z" stroke="#652d7e" fill="#652d7e"/><path d="M121.67 204.5c8 0 14.48 6.5 14.48 14.48v175.2c0 8-6.48 14.5-14.48 14.5s-14.48-6.5-14.48-14.5V219c0-8 6.48-14.48 14.47-14.48zM166.7 320.34V292.2c15.62 0 28.3-12.62 28.3-28.17h28.27c0 31.1-25.33 56.3-56.56 56.3z" stroke="#fff" fill="#fff"/><path d="M110.14 264.03h28.28c0 15.55 12.67 28.16 28.3 28.16v28.14c-31.25 0-56.58-25.2-56.58-56.3zM237.87 89.4c8 0 14.48 6.47 14.48 14.47V307.3c0 8-6.48 14.5-14.48 14.5s-14.48-6.5-14.48-14.5V103.88c0-8 6.48-14.48 14.47-14.48zM339.23 263.15h-29.05c0-16.05-13-29.05-29.05-29.05v-29.05c32.1 0 58.1 26 58.1 58.1z" stroke="#fff" fill="#fff"/><path d="M281.13 205.05v29.05c-16.04 0-29.05 13-29.05 29.05h-29.05c0-32.1 26-58.1 58.1-58.1zM324.75 248.67c8 0 14.48 6.48 14.48 14.48v44.88c0 8-6.48 14.48-14.48 14.48s-14.48-6.47-14.48-14.47v-44.88c0-8 6.48-14.48 14.48-14.48zM468.1 204.8c8 0 14.48 6.48 14.48 14.47v88.76c0 8-6.48 14.48-14.48 14.48s-14.48-6.47-14.48-14.47v-88.76c0-8 6.48-14.48 14.48-14.48zM569.46 263.87H540.4c0-16.04-13-29.05-29.04-29.05v-29.05c32.08 0 58.1 26 58.1 58.1z" stroke="#fff" fill="#fff"/><path d="M511.36 205.77v29.05c-16.05 0-29.05 13-29.05 29.05h-29.04c0-32.1 26-58.1 58.1-58.1zM554.98 249.4c8 0 14.48 6.47 14.48 14.47v44.9c0 7.98-6.5 14.47-14.48 14.47-8 0-14.48-6.5-14.48-14.48v-44.9c0-8 6.48-14.47 14.48-14.47z" stroke="#fff" fill="#fff"/><path d="M670.27 250.1c8 0 14.48 6.5 14.48 14.5s-6.48 14.47-14.48 14.47h-86.15c-8 0-14.48-6.48-14.48-14.48s6.48-14.5 14.48-14.5z" stroke="#fff" stroke-width="2" fill="#fff"/><path d="M569.1 265.14h29.04c0 16.04 13 29.05 29.05 29.05v29.04c-32.1 0-58.1-26.02-58.1-58.1zM685.3 264.05h-29.06c0-16.04-13-29.05-29.05-29.05v-29.05c32.08 0 58.1 26 58.1 58.1z" stroke="#fff" fill="#fff"/><path d="M627.2 205.95V235c-16.05 0-29.06 13-29.06 29.05H569.1c0-32.1 26-58.1 58.1-58.1zM628.28 294.28h14.48c8 0 14.48 6.48 14.48 14.48s-6.48 14.48-14.48 14.48h-14.48zM684.93 260.97h29.05c0 16.05 13 29.05 29.05 29.05v29.05c-32.1 0-58.1-26-58.1-58.1zM743.03 319.07v-29.05c16.05 0 29.05-13 29.05-29.05h29.05c0 32.1-26 58.1-58.1 58.1z" stroke="#fff" fill="#fff"/><path d="M699.4 88.67c8 0 14.5 6.48 14.5 14.48v156.38c0 8-6.5 14.48-14.5 14.48s-14.47-6.48-14.47-14.47V103.15c0-8 6.48-14.48 14.48-14.48zM786.3 245.05c8 0 14.47 6.48 14.47 14.48S794.3 274 786.3 274s-14.5-6.48-14.5-14.47c0-8 6.5-14.48 14.5-14.48z" stroke="#fff" fill="#fff"/><path d="M786.3 143.7c8 0 14.47 6.47 14.47 14.47s-6.48 14.48-14.48 14.48h-86.9c-8 0-14.47-6.48-14.47-14.48s6.48-14.48 14.48-14.48zM800.77 260.97h29.05c0 16.05 13 29.05 29.05 29.05v29.05c-32.1 0-58.1-26-58.1-58.1zM858.87 319.07v-29.05c16.04 0 29.05-13 29.05-29.05h29.05c0 32.1-26 58.1-58.1 58.1z" stroke="#fff" fill="#fff"/><path d="M815.25 88.67c8 0 14.48 6.48 14.48 14.48v156.38c0 8-6.48 14.48-14.48 14.48s-14.48-6.48-14.48-14.47V103.15c0-8 6.48-14.48 14.48-14.48zM902.13 245.05c8 0 14.48 6.48 14.48 14.48S910.13 274 902.14 274c-8 0-14.48-6.48-14.48-14.47 0-8 6.48-14.48 14.48-14.48z" stroke="#fff" fill="#fff"/><path d="M902.13 143.7c8 0 14.48 6.47 14.48 14.47s-6.48 14.48-14.47 14.48H786.3c-8 0-14.5-6.48-14.5-14.48s6.5-14.48 14.5-14.48zM1018.33 205.95c8 0 14.48 6.48 14.48 14.48v88.33c0 8-6.48 14.48-14.47 14.48-8 0-14.48-6.5-14.48-14.48v-88.33c0-8 6.48-14.48 14.48-14.48z" stroke="#fff" fill="#fff"/><path d="M974.7 323.24V294.2c16.05 0 29.06-13.02 29.06-29.06h29.05c0 32.08-26 58.1-58.1 58.1z" stroke="#fff" fill="#fff"/><path d="M916.6 265.14h29.06c0 16.04 13 29.05 29.05 29.05v29.04c-32.08 0-58.1-26.02-58.1-58.1zM396.88 320.34V292.2c15.62 0 28.28-12.62 28.28-28.17h28.28c0 31.1-25.32 56.3-56.56 56.3z" stroke="#fff" fill="#fff"/><path d="M340.32 264.03h28.28c0 15.55 12.66 28.16 28.28 28.16v28.14c-31.24 0-56.56-25.2-56.56-56.3zM223.27 264.27H195c0-15.55-12.67-28.15-28.3-28.15v-28.16c31.25 0 56.57 25.2 56.57 56.3z" stroke="#fff" fill="#fff"/><path d="M166.7 207.96v28.16c-15.6 0-28.27 12.6-28.27 28.15h-28.28c0-31.1 25.32-56.3 56.56-56.3zM453.44 265h-28.28c0-15.54-12.66-28.14-28.28-28.14V208.7c31.24 0 56.56 25.22 56.56 56.3z" stroke="#fff" fill="#fff"/><path d="M396.88 208.7v28.16c-15.62 0-28.28 12.6-28.28 28.15h-28.28c0-31.08 25.32-56.3 56.56-56.3zM1032.8 266.55h-29.04c0-16.05-13-29.05-29.05-29.05v-29.05c32.1 0 58.1 26 58.1 58.1z" stroke="#fff" fill="#fff"/><path d="M974.73 208.9v29.04c-16.04 0-29.05 13-29.05 29.05h-29.05c0-32.1 26.02-58.1 58.1-58.1z" stroke="#fff" fill="#fff"/></svg>