<svg xmlns="http://www.w3.org/2000/svg" width="1140" height="520"><path d="M1109.5 251c5.8 0 10.5 4.7 10.5 10.5s-4.7 10.5-10.5 10.5H30.5c-5.8 0-10.5-4.7-10.5-10.5S24.7 251 30.5 251z" stroke="#333" fill="#333"/><path d="M390 160c5.52 0 10 4.48 10 10v181c0 5.52-4.48 10-10 10s-10-4.48-10-10V170c0-5.52 4.48-10 10-10z" stroke="#333" stroke-opacity=".2" fill="#333" fill-opacity=".6"/><path d="M829 100c5.52 0 10 4.48 10 10v300c0 5.52-4.48 10-10 10s-10-4.48-10-10V110c0-5.52 4.48-10 10-10zM746.67 139.67c5.52 0 10 4.47 10 10v218c0 5.52-4.48 10-10 10-5.53 0-10-4.48-10-10v-218c0-5.53 4.47-10 10-10z" stroke="#652d7e" stroke-opacity=".6" fill="#652d7e"/><path d="M790.88 180c5.52 0 10 4.48 10 10v141c0 5.52-4.48 10-10 10-5.53 0-10-4.48-10-10V190c0-5.52 4.47-10 10-10z" stroke="#333" stroke-opacity=".2" fill="#333" fill-opacity=".6"/><path d="M509 60c5.52 0 10 4.48 10 10v376.55c0 5.52-4.48 10-10 10s-10-4.48-10-10V70c0-5.52 4.48-10 10-10z" stroke="#652d7e" stroke-opacity=".6" fill="#652d7e"/><path d="M630.18 20c5.52 0 10 4.48 10 10v460c0 5.52-4.48 10-10 10-5.53 0-10-4.48-10-10V30c0-5.52 4.47-10 10-10z" stroke="#333" stroke-opacity=".2" fill="#333" fill-opacity=".6"/><path d="M591.18 122c5.62 0 10.17 4.56 10.17 10.18v257.14c0 5.62-4.55 10.18-10.17 10.18S581 394.94 581 389.32V132.18c0-5.62 4.56-10.18 10.18-10.18z" stroke="#652d7e" stroke-opacity=".6" fill="#652d7e"/><path d="M70 220c5.52 0 10 4.48 10 10v60c0 5.52-4.48 10-10 10s-10-4.48-10-10v-60c0-5.52 4.48-10 10-10z" stroke="#333" stroke-opacity=".2" fill="#333" fill-opacity=".6"/><path d="M110 180c5.52 0 10 4.48 10 10v140c0 5.52-4.48 10-10 10s-10-4.48-10-10V190c0-5.52 4.48-10 10-10z" stroke="#652d7e" fill="#652d7e"/><path d="M150 140c5.52 0 10 4.48 10 10v220c0 5.52-4.48 10-10 10s-10-4.48-10-10V150c0-5.52 4.48-10 10-10z" stroke="#333" stroke-opacity=".2" fill="#333" fill-opacity=".6"/><path d="M190 180c5.52 0 10 4.48 10 10v140c0 5.52-4.48 10-10 10s-10-4.48-10-10V190c0-5.52 4.48-10 10-10z" stroke="#652d7e" fill="#652d7e"/><path d="M230 100c5.52 0 10 4.48 10 10v300c0 5.52-4.48 10-10 10s-10-4.48-10-10V110c0-5.52 4.48-10 10-10z" stroke="#333" stroke-opacity=".2" fill="#333" fill-opacity=".6"/><path d="M270.32 160c5.7 0 10.32 4.62 10.32 10.32v180.02c0 5.7-4.62 10.33-10.32 10.33S260 356.05 260 350.34V170.32c0-5.7 4.62-10.32 10.32-10.32zM350 139.67c5.52 0 10 4.47 10 10V369c0 5.52-4.48 10-10 10s-10-4.48-10-10V149.67c0-5.53 4.48-10 10-10zM429.82 122c5.62 0 10.18 4.56 10.18 10.18v257.14c0 5.62-4.56 10.18-10.18 10.18s-10.17-4.56-10.17-10.18V132.18c0-5.62 4.55-10.18 10.17-10.18z" stroke="#652d7e" fill="#652d7e"/><path d="M549.3 100c5.54 0 10 4.48 10 10v300c0 5.52-4.46 10-10 10-5.5 0-10-4.48-10-10V110c0-5.52 4.5-10 10-10z" stroke="#333" stroke-opacity=".2" fill="#333" fill-opacity=".6"/><path d="M668.98 139.67c5.6 0 10.16 4.55 10.16 10.16V367.5c0 5.62-4.55 10.17-10.16 10.17-5.6 0-10.16-4.55-10.16-10.16V149.84c0-5.6 4.55-10.16 10.16-10.16z" stroke="#652d7e" stroke-opacity=".6" fill="#652d7e"/><path d="M711 198.67c5.52 0 10 4.47 10 10V331c0 5.52-4.48 10-10 10s-10-4.48-10-10V208.67c0-5.53 4.48-10 10-10zM949 138c5.52 0 10 4.48 10 10v220c0 5.52-4.48 10-10 10s-10-4.48-10-10V148c0-5.52 4.48-10 10-10z" stroke="#333" stroke-opacity=".2" fill="#333" fill-opacity=".6"/><path d="M989 222c5.52 0 10 4.48 10 10v60c0 5.52-4.48 10-10 10s-10-4.48-10-10v-60c0-5.52 4.48-10 10-10z" stroke="#652d7e" fill="#652d7e"/><path d="M1029.5 180c5.52 0 10 4.48 10 10v140c0 5.52-4.48 10-10 10s-10-4.48-10-10V190c0-5.52 4.48-10 10-10zM310 160c5.52 0 10 4.48 10 10v181.1c0 5.54-4.48 10-10 10s-10-4.46-10-10V170c0-5.52 4.48-10 10-10zM469.2 160.5c5.5 0 10 4.48 10 10v181c0 5.52-4.5 10-10 10-5.54 0-10-4.48-10-10v-181c0-5.52 4.46-10 10-10zM869 62.72c5.52 0 10 4.48 10 10v376.56c0 5.52-4.48 10-10 10s-10-4.48-10-10V72.72c0-5.52 4.48-10 10-10z" stroke="#333" stroke-opacity=".2" fill="#333" fill-opacity=".6"/><path d="M909 102c5.52 0 10 4.48 10 10v300c0 5.52-4.48 10-10 10s-10-4.48-10-10V112c0-5.52 4.48-10 10-10zM1070 220c5.52 0 10 4.48 10 10v60c0 5.52-4.48 10-10 10s-10-4.48-10-10v-60c0-5.52 4.48-10 10-10z" stroke="#652d7e" fill="#652d7e"/><path d="M182 208.24c6.93 0 12.53 5.6 12.53 12.52v151.42c0 6.92-5.6 12.52-12.52 12.52-6.9 0-12.5-5.6-12.5-12.52V220.76c0-6.92 5.6-12.52 12.5-12.52zM220.93 308.36v-24.33c13.5 0 24.45-10.9 24.45-24.34h24.44c0 26.87-21.9 48.66-48.9 48.66z" stroke="#000"/><path d="M172.05 259.7h24.44c0 13.43 10.94 24.33 24.43 24.33v24.33c-27 0-48.88-21.8-48.88-48.67zM282.44 108.75c6.92 0 12.52 5.6 12.52 12.5V297.1c0 6.9-5.6 12.5-12.52 12.5-6.9 0-12.5-5.6-12.5-12.5V121.26c0-6.9 5.6-12.5 12.5-12.5zM370.05 258.93h-25.1c0-13.87-11.25-25.1-25.12-25.1V208.7c27.74 0 50.22 22.5 50.22 50.23z" stroke="#000"/><path d="M319.83 208.7v25.12c-13.86 0-25.1 11.24-25.1 25.1h-25.1c0-27.73 22.47-50.2 50.2-50.2zM357.53 246.4c6.9 0 12.52 5.6 12.52 12.53v38.8c0 6.9-5.6 12.5-12.52 12.5-6.9 0-12.5-5.6-12.5-12.5v-38.8c0-6.92 5.6-12.52 12.5-12.52zM481.43 208.5c6.9 0 12.5 5.6 12.5 12.5v76.72c0 6.9-5.6 12.52-12.5 12.52s-12.52-5.6-12.52-12.52v-76.7c0-6.93 5.62-12.53 12.53-12.53zM569.03 259.55h-25.1c0-13.87-11.25-25.1-25.1-25.1v-25.1c27.72 0 50.2 22.47 50.2 50.2z" stroke="#000"/><path d="M518.82 209.34v25.1c-13.87 0-25.1 11.24-25.1 25.1H468.6c0-27.72 22.48-50.2 50.22-50.2zM556.52 247.04c6.9 0 12.5 5.6 12.5 12.5v38.8c0 6.92-5.6 12.52-12.5 12.52-6.92 0-12.52-5.6-12.52-12.5v-38.8c0-6.92 5.6-12.52 12.52-12.52z" stroke="#000"/><path d="M656.16 247.66c6.92 0 12.52 5.6 12.52 12.52 0 6.9-5.6 12.5-12.52 12.5H581.7c-6.9 0-12.5-5.6-12.5-12.5s5.6-12.52 12.5-12.52z" stroke="#000" stroke-width="2"/><path d="M568.72 260.65h25.1c0 13.86 11.25 25.1 25.1 25.1v25.1c-27.72 0-50.2-22.47-50.2-50.2zM669.15 259.7h-25.1c0-13.86-11.25-25.1-25.12-25.1v-25.1c27.74 0 50.22 22.47 50.22 50.2zM618.93 209.5v25.1c-13.86 0-25.1 11.24-25.1 25.1h-25.1c0-27.73 22.47-50.2 50.2-50.2zM619.87 285.83h12.52c6.9 0 12.5 5.6 12.5 12.52 0 6.9-5.6 12.5-12.5 12.5h-12.53z" stroke="#000"/><path d="M668.84 257.05h25.1c0 13.87 11.24 25.1 25.1 25.1v25.1c-27.72 0-50.2-22.47-50.2-50.2zM719.05 307.26v-25.1c13.87 0 25.1-11.24 25.1-25.1h25.12c0 27.72-22.5 50.2-50.22 50.2z" stroke="#000"/><path d="M681.35 108.12c6.9 0 12.5 5.6 12.5 12.52V255.8c0 6.9-5.6 12.5-12.5 12.5s-12.5-5.6-12.5-12.5V120.64c0-6.9 5.6-12.52 12.5-12.52zM756.44 243.28c6.9 0 12.5 5.6 12.5 12.52 0 6.9-5.6 12.5-12.5 12.5s-12.52-5.6-12.52-12.5 5.6-12.52 12.52-12.52z" stroke="#000"/><path d="M756.44 155.68c6.9 0 12.5 5.6 12.5 12.5 0 6.93-5.6 12.53-12.5 12.53h-75.1c-6.9 0-12.5-5.6-12.5-12.5 0-6.92 5.6-12.52 12.5-12.52zM768.95 257.05h25.1c0 13.87 11.25 25.1 25.12 25.1v25.1c-27.74 0-50.22-22.47-50.22-50.2z" stroke="#000"/><path d="M819.17 307.26v-25.1c13.86 0 25.1-11.24 25.1-25.1h25.1c0 27.72-22.47 50.2-50.2 50.2zM781.47 108.12c6.9 0 12.5 5.6 12.5 12.52V255.8c0 6.9-5.6 12.5-12.5 12.5s-12.52-5.6-12.52-12.5V120.64c0-6.9 5.6-12.52 12.52-12.52z" stroke="#000"/><path d="M856.56 243.28c6.9 0 12.5 5.6 12.5 12.52 0 6.9-5.6 12.5-12.5 12.5-6.92 0-12.52-5.6-12.52-12.5s5.6-12.52 12.52-12.52zM856.56 155.68c6.9 0 12.5 5.6 12.5 12.5 0 6.93-5.6 12.53-12.5 12.53H756.44c-6.9 0-12.52-5.6-12.52-12.5 0-6.92 5.6-12.52 12.52-12.52zM957 209.5c6.9 0 12.5 5.6 12.5 12.5v76.35c0 6.9-5.6 12.5-12.5 12.5-6.93 0-12.53-5.6-12.53-12.5V222c0-6.9 5.6-12.5 12.52-12.5z" stroke="#000"/><path d="M919.28 310.86v-25.1c13.87 0 25.1-11.25 25.1-25.1h25.12c0 27.72-22.48 50.2-50.22 50.2zM869.07 260.65h25.1c0 13.86 11.25 25.1 25.1 25.1v25.1c-27.72 0-50.2-22.47-50.2-50.2zM419.87 308.36v-24.33c13.5 0 24.44-10.9 24.44-24.34h24.46c0 26.87-21.9 48.66-48.9 48.66zM371 259.7h24.43c0 13.43 10.94 24.33 24.44 24.33v24.33c-27 0-48.88-21.8-48.88-48.67zM269.82 259.9h-24.44c0-13.44-10.94-24.34-24.44-24.34v-24.33c27 0 48.88 21.8 48.88 48.67z" stroke="#000"/><path d="M220.94 211.23v24.33c-13.5 0-24.45 10.9-24.45 24.34h-24.45c0-26.88 21.9-48.67 48.9-48.67zM468.76 260.54H444.3c0-13.44-10.93-24.33-24.43-24.33v-24.33c27 0 48.9 21.8 48.9 48.67zM419.87 211.87v24.34c-13.5 0-24.44 10.9-24.44 24.34H371c0-26.88 21.87-48.67 48.87-48.67zM969.5 261.87h-25.1c0-13.87-11.25-25.1-25.12-25.1v-25.12c27.74 0 50.22 22.48 50.22 50.22z" stroke="#000"/><path d="M919.3 212.03v25.1c-13.86 0-25.1 11.25-25.1 25.12h-25.1c0-27.73 22.48-50.22 50.2-50.22z" stroke="#000"/></svg>