<svg xmlns="http://www.w3.org/2000/svg" width="1140" height="520"><path d="M1109.5 251c5.8 0 10.5 4.7 10.5 10.5s-4.7 10.5-10.5 10.5H30.5c-5.8 0-10.5-4.7-10.5-10.5S24.7 251 30.5 251z" stroke="#333" fill="#333"/><path d="M390 160c5.52 0 10 4.48 10 10v181c0 5.52-4.48 10-10 10s-10-4.48-10-10V170c0-5.52 4.48-10 10-10z" stroke="#333" stroke-opacity=".2" fill="#333" fill-opacity=".6"/><path d="M829 100c5.52 0 10 4.48 10 10v300c0 5.52-4.48 10-10 10s-10-4.48-10-10V110c0-5.52 4.48-10 10-10zM749.13 248c5.52 0 10 4.48 10 10v111c0 5.52-4.48 10-10 10-5.53 0-10-4.48-10-10V258c0-5.52 4.47-10 10-10z" stroke="#652d7e" stroke-opacity=".6" fill="#652d7e"/><path d="M790.88 180c5.52 0 10 4.48 10 10v141c0 5.52-4.48 10-10 10-5.53 0-10-4.48-10-10V190c0-5.52 4.47-10 10-10z" stroke="#333" stroke-opacity=".2" fill="#333" fill-opacity=".6"/><path d="M509 60c5.52 0 10 4.48 10 10v376.55c0 5.52-4.48 10-10 10s-10-4.48-10-10V70c0-5.52 4.48-10 10-10z" stroke="#652d7e" stroke-opacity=".6" fill="#652d7e"/><path d="M630.18 20c5.52 0 10 4.48 10 10v460c0 5.52-4.48 10-10 10-5.53 0-10-4.48-10-10V30c0-5.52 4.47-10 10-10z" stroke="#333" stroke-opacity=".2" fill="#333" fill-opacity=".6"/><path d="M591.18 122c5.62 0 10.17 4.56 10.17 10.18v257.14c0 5.62-4.55 10.18-10.17 10.18S581 394.94 581 389.32V132.18c0-5.62 4.56-10.18 10.18-10.18z" stroke="#652d7e" stroke-opacity=".6" fill="#652d7e"/><path d="M70 220c5.52 0 10 4.48 10 10v60c0 5.52-4.48 10-10 10s-10-4.48-10-10v-60c0-5.52 4.48-10 10-10z" stroke="#333" stroke-opacity=".2" fill="#333" fill-opacity=".6"/><path d="M110 180c5.52 0 10 4.48 10 10v140c0 5.52-4.48 10-10 10s-10-4.48-10-10V190c0-5.52 4.48-10 10-10z" stroke="#652d7e" fill="#652d7e"/><path d="M150 140c5.52 0 10 4.48 10 10v220c0 5.52-4.48 10-10 10s-10-4.48-10-10V150c0-5.52 4.48-10 10-10z" stroke="#333" stroke-opacity=".2" fill="#333" fill-opacity=".6"/><path d="M190 180c5.52 0 10 4.48 10 10v140c0 5.52-4.48 10-10 10s-10-4.48-10-10V190c0-5.52 4.48-10 10-10z" stroke="#652d7e" fill="#652d7e"/><path d="M230 100c5.52 0 10 4.48 10 10v300c0 5.52-4.48 10-10 10s-10-4.48-10-10V110c0-5.52 4.48-10 10-10z" stroke="#333" stroke-opacity=".2" fill="#333" fill-opacity=".6"/><path d="M270 160c5.52 0 10 4.48 10 10v60c0 5.52-4.48 10-10 10s-10-4.48-10-10v-60c0-5.52 4.48-10 10-10zM350 262c5.52 0 10 4.48 10 10v97c0 5.52-4.48 10-10 10s-10-4.48-10-10v-97c0-5.52 4.48-10 10-10zM429.82 122c5.62 0 10.18 4.56 10.18 10.18v257.14c0 5.62-4.56 10.18-10.18 10.18s-10.17-4.56-10.17-10.18V132.18c0-5.62 4.55-10.18 10.17-10.18z" stroke="#652d7e" fill="#652d7e"/><path d="M549.3 100c5.54 0 10 4.48 10 10v300c0 5.52-4.46 10-10 10-5.5 0-10-4.48-10-10V110c0-5.52 4.5-10 10-10z" stroke="#333" stroke-opacity=".2" fill="#333" fill-opacity=".6"/><path d="M669.25 248c5.52 0 10 4.48 10 10v111c0 5.52-4.48 10-10 10s-10-4.48-10-10V258c0-5.52 4.48-10 10-10z" stroke="#652d7e" stroke-opacity=".6" fill="#652d7e"/><path d="M711 180c5.52 0 10 4.48 10 10v141c0 5.52-4.48 10-10 10s-10-4.48-10-10V190c0-5.52 4.48-10 10-10zM949 138c5.52 0 10 4.48 10 10v220c0 5.52-4.48 10-10 10s-10-4.48-10-10V148c0-5.52 4.48-10 10-10z" stroke="#333" stroke-opacity=".2" fill="#333" fill-opacity=".6"/><path d="M989 222c5.52 0 10 4.48 10 10v60c0 5.52-4.48 10-10 10s-10-4.48-10-10v-60c0-5.52 4.48-10 10-10zM1070 220c5.52 0 10 4.48 10 10v60c0 5.52-4.48 10-10 10s-10-4.48-10-10v-60c0-5.52 4.48-10 10-10z" stroke="#652d7e" fill="#652d7e"/><path d="M1029.5 180c5.52 0 10 4.48 10 10v140c0 5.52-4.48 10-10 10s-10-4.48-10-10V190c0-5.52 4.48-10 10-10zM310 160c5.52 0 10 4.48 10 10v181.1c0 5.54-4.48 10-10 10s-10-4.46-10-10V170c0-5.52 4.48-10 10-10zM469.2 160.5c5.5 0 10 4.48 10 10v181c0 5.52-4.5 10-10 10-5.54 0-10-4.48-10-10v-181c0-5.52 4.46-10 10-10zM869 62.72c5.52 0 10 4.48 10 10v376.56c0 5.52-4.48 10-10 10s-10-4.48-10-10V72.72c0-5.52 4.48-10 10-10z" stroke="#333" stroke-opacity=".2" fill="#333" fill-opacity=".6"/><path d="M909 102c5.52 0 10 4.48 10 10v300c0 5.52-4.48 10-10 10s-10-4.48-10-10V112c0-5.52 4.48-10 10-10z" stroke="#652d7e" fill="#652d7e"/><path d="M898.67 261.12H878.6c0-11.08-8.98-20.06-20.06-20.06V221c22.16 0 40.13 17.96 40.13 40.12zM858.54 221v20.06c-11.08 0-20.06 8.98-20.06 20.06h-20.06c0-22.16 17.96-40.12 40.12-40.12z" stroke="#fff" fill="#fff"/><path d="M648.3 251.5c5.5 0 10 4.48 10 10s-4.5 10-10 10h-59.5c-5.53 0-10-4.48-10-10s4.47-10 10-10z" stroke="#fff" stroke-width="2" fill="#fff"/><path d="M578.42 261.88h20.06c0 11.08 8.98 20.06 20.06 20.06V302c-22.16 0-40.12-17.96-40.12-40.12zM658.67 261.12H638.6c0-11.08-8.98-20.06-20.06-20.06V221c22.16 0 40.13 17.96 40.13 40.12zM618.54 221v20.06c-11.08 0-20.06 8.98-20.06 20.06h-20.06c0-22.16 17.96-40.12 40.12-40.12zM619.3 282h10c5.5 0 10 4.48 10 10s-4.5 10-10 10h-10z" stroke="#fff" fill="#fff"/><path d="M658.42 259h20.06c0 11.08 8.98 20.06 20.06 20.06v20.07c-22.16 0-40.12-17.97-40.12-40.13zM698.54 299.13v-20.07c11.08 0 20.06-8.98 20.06-20.06h20.07c0 22.16-17.97 40.13-40.13 40.13z" stroke="#fff" fill="#fff"/><path d="M668.42 140c5.52 0 10 4.48 10 10v108c0 5.52-4.48 10-10 10-5.53 0-10-4.48-10-10V150c0-5.52 4.47-10 10-10zM728.42 248c5.52 0 10 4.48 10 10s-4.48 10-10 10c-5.53 0-10-4.48-10-10s4.47-10 10-10z" stroke="#fff" fill="#fff"/><path d="M728.42 178c5.52 0 10 4.48 10 10s-4.48 10-10 10h-60c-5.53 0-10-4.48-10-10s4.47-10 10-10zM738.42 259h20.06c0 11.08 8.98 20.06 20.06 20.06v20.07c-22.16 0-40.12-17.97-40.12-40.13zM778.54 299.13v-20.07c11.08 0 20.06-8.98 20.06-20.06h20.07c0 22.16-17.97 40.13-40.13 40.13z" stroke="#fff" fill="#fff"/><path d="M748.42 140c5.52 0 10 4.48 10 10v108c0 5.52-4.48 10-10 10-5.53 0-10-4.48-10-10V150c0-5.52 4.47-10 10-10zM808.42 248c5.52 0 10 4.48 10 10s-4.48 10-10 10c-5.53 0-10-4.48-10-10s4.47-10 10-10z" stroke="#fff" fill="#fff"/><path d="M808.42 178c5.52 0 10 4.48 10 10s-4.48 10-10 10h-80c-5.53 0-10-4.48-10-10s4.47-10 10-10zM888.67 221c5.52 0 10 4.48 10 10v61c0 5.52-4.48 10-10 10-5.53 0-10-4.48-10-10v-61c0-5.52 4.47-10 10-10z" stroke="#fff" fill="#fff"/><path d="M858.54 302v-20.06c11.08 0 20.06-8.98 20.06-20.07h20.07c0 22.17-17.97 40.13-40.13 40.13zM818.42 261.88h20.06c0 11.08 8.98 20.06 20.06 20.06V302c-22.16 0-40.12-17.96-40.12-40.12zM508.67 220.2c5.52 0 10 4.48 10 10v61.3c0 5.52-4.48 10-10 10-5.53 0-10-4.48-10-10v-61.3c0-5.52 4.47-10 10-10zM578.67 261H558.6c0-11.08-8.98-20.06-20.06-20.06v-20.07c22.16 0 40.13 17.97 40.13 40.13z" stroke="#fff" fill="#fff"/><path d="M538.54 220.88v20.06c-11.08 0-20.06 8.98-20.06 20.06h-20.06c0-22.16 17.96-40.13 40.12-40.13zM568.67 251c5.52 0 10 4.48 10 10v31c0 5.52-4.48 10-10 10-5.53 0-10-4.48-10-10v-31c0-5.52 4.47-10 10-10zM339.58 260.4h-19.53c0-10.75-8.75-19.46-19.53-19.46V221.5c21.57 0 39.06 17.4 39.06 38.9zM269.42 220c5.52 0 10 4.48 10 10v121c0 5.52-4.48 10-10 10-5.53 0-10-4.48-10-10V230c0-5.52 4.47-10 10-10z" stroke="#fff" fill="#fff"/><path d="M300.52 221.5v19.44c-10.8 0-19.54 8.7-19.54 19.45h-19.53c0-21.5 17.5-38.9 39.07-38.9zM300.52 300v-19.44c10.78 0 19.53-8.7 19.53-19.45h19.53c0 21.5-17.5 38.9-39.06 38.9z" stroke="#fff" fill="#fff"/><path d="M261.45 261.1h19.53c0 10.75 8.75 19.46 19.54 19.46V300c-21.58 0-39.07-17.4-39.07-38.9zM349.67 140.5c5.52 0 10 4.48 10 10V291c0 5.52-4.48 10-10 10-5.53 0-10-4.48-10-10V150.5c0-5.52 4.47-10 10-10zM419.67 260.5H399.6c0-11.08-8.98-20.06-20.06-20.06v-20.07c22.16 0 40.13 17.97 40.13 40.13z" stroke="#fff" fill="#fff"/><path d="M379.54 220.38v20.06c-11.08 0-20.06 8.98-20.06 20.06h-20.06c0-22.16 17.96-40.13 40.12-40.13zM409.67 250.5c5.52 0 10 4.48 10 10v31c0 5.52-4.48 10-10 10-5.53 0-10-4.48-10-10v-31c0-5.52 4.47-10 10-10zM498.54 260.4H479c0-10.75-8.73-19.46-19.52-19.46V221.5c21.57 0 39.06 17.4 39.06 38.9z" stroke="#fff" fill="#fff"/><path d="M459.48 221.5v19.44c-10.8 0-19.53 8.7-19.53 19.45h-19.53c0-21.5 17.5-38.9 39.06-38.9zM459.48 300v-19.44c10.8 0 19.53-8.7 19.53-19.45h19.54c0 21.5-17.5 38.9-39.06 38.9zM420.42 261.1h19.53c0 10.75 8.74 19.46 19.53 19.46V300c-21.57 0-39.06-17.4-39.06-38.9z" stroke="#fff" fill="#fff"/></svg>